<?xml version="1.0" encoding="UTF-8"?>
<svg width="215px" height="58px" viewBox="0 0 215 58" version="1.1" xmlns="http://www.w3.org/2000/svg" xmlns:xlink="http://www.w3.org/1999/xlink">
    <!-- Generator: Sketch 47.1 (45422) - http://www.bohemiancoding.com/sketch -->
    <title>logo-landscaping-white</title>
    <desc>Created with Sketch.</desc>
    <defs></defs>
    <g id="New" stroke="none" stroke-width="1" fill="none" fill-rule="evenodd">
        <g id="logo-landscaping-white" fill="#FFFFFF">
            <path d="M32.37,29.74 L36.99,29.74 L36.99,52 L32.37,52 L32.37,29.74 Z M50.97,52 L50.97,50.11 C50.4299973,50.7900034 49.7300043,51.3099982 48.87,51.67 C48.0099957,52.0300018 47.0200056,52.21 45.9,52.21 C44.1999915,52.21 42.850005,51.7450046 41.85,50.815 C40.849995,49.8849953 40.35,48.6700075 40.35,47.17 C40.35,45.6499924 40.8849946,44.4650042 41.955,43.615 C43.0250054,42.7649957 44.5399902,42.3300001 46.5,42.31 L50.94,42.31 L50.94,42.01 C50.94,41.1499957 50.6550029,40.4850024 50.085,40.015 C49.5149971,39.5449976 48.6800055,39.31 47.58,39.31 C46.0799925,39.31 44.4800085,39.7799953 42.78,40.72 L41.34,37.54 C42.6200064,36.8999968 43.8199944,36.4300015 44.94,36.13 C46.0600056,35.8299985 47.2899933,35.68 48.63,35.68 C50.7900108,35.68 52.4649941,36.1899949 53.655,37.21 C54.845006,38.2300051 55.4499999,39.6499909 55.47,41.47 L55.5,52 L50.97,52 Z M47.19,48.91 C48.1500048,48.91 48.9799965,48.6800023 49.68,48.22 C50.3800035,47.7599977 50.7999993,47.1800035 50.94,46.48 L50.94,45.04 L47.31,45.04 C46.4099955,45.04 45.7450021,45.1849986 45.315,45.475 C44.8849978,45.7650014 44.67,46.2299968 44.67,46.87 C44.67,47.4900031 44.8949978,47.9849981 45.345,48.355 C45.7950022,48.7250018 46.4099961,48.91 47.19,48.91 Z M69.69,35.68 C71.490009,35.68 72.9249946,36.2399944 73.995,37.36 C75.0650053,38.4800056 75.6,39.9799906 75.6,41.86 L75.6,52 L70.98,52 L70.98,43.21 C70.98,42.1899949 70.6950028,41.385003 70.125,40.795 C69.5549971,40.2049971 68.7800049,39.91 67.8,39.91 C66.6599943,39.9300001 65.7600033,40.3249962 65.1,41.095 C64.4399967,41.8650039 64.11,42.849994 64.11,44.05 L64.11,52 L59.49,52 L59.49,35.86 L64.11,35.86 L64.11,38.68 C65.2300056,36.7199902 67.089987,35.7200002 69.69,35.68 Z M95.52,29.74 L95.52,52 L90.93,52 L90.93,49.63 C90.3499971,50.4700042 89.6300043,51.1049979 88.77,51.535 C87.9099957,51.9650022 86.9300055,52.18 85.83,52.18 C84.3099924,52.18 82.9750057,51.8350035 81.825,51.145 C80.6749942,50.4549965 79.7850031,49.4800063 79.155,48.22 C78.5249968,46.9599937 78.21,45.5100082 78.21,43.87 C78.21,42.2499919 78.5199969,40.8200062 79.14,39.58 C79.7600031,38.3399938 80.6399943,37.3800034 81.78,36.7 C82.9200057,36.0199966 84.2299926,35.68 85.71,35.68 C87.9900114,35.68 89.729994,36.5299915 90.93,38.23 L90.93,29.74 L95.52,29.74 Z M86.91,48.46 C88.0900059,48.46 89.0549962,48.0450041 89.805,47.215 C90.5550037,46.3849959 90.93,45.3100066 90.93,43.99 C90.93,42.6699934 90.5550037,41.5950041 89.805,40.765 C89.0549962,39.9349959 88.0900059,39.52 86.91,39.52 C85.709994,39.52 84.7350037,39.9349959 83.985,40.765 C83.2349962,41.5950041 82.8500001,42.6699934 82.83,43.99 C82.8500001,45.3100066 83.2349962,46.3849959 83.985,47.215 C84.7350037,48.0450041 85.709994,48.46 86.91,48.46 Z M110.31,40.6 C109.429996,40.0999975 108.560004,39.7150014 107.7,39.445 C106.839996,39.1749987 106.070003,39.04 105.39,39.04 C104.829997,39.04 104.380002,39.139999 104.04,39.34 C103.699998,39.540001 103.53,39.839998 103.53,40.24 C103.53,40.6800022 103.759998,41.0199988 104.22,41.26 C104.680002,41.5000012 105.429995,41.7699985 106.47,42.07 C107.610006,42.4100017 108.549996,42.7449984 109.29,43.075 C110.030004,43.4050017 110.669997,43.8949968 111.21,44.545 C111.750003,45.1950032 112.02,46.0499947 112.02,47.11 C112.02,48.710008 111.405006,49.9549956 110.175,50.845 C108.944994,51.7350045 107.37001,52.18 105.45,52.18 C104.129993,52.18 102.860006,51.9850019 101.64,51.595 C100.419994,51.2049981 99.3600045,50.6500036 98.46,49.93 L99.96,46.81 C100.780004,47.4500032 101.694995,47.9449982 102.705,48.295 C103.715005,48.6450018 104.669995,48.82 105.57,48.82 C106.190003,48.82 106.684998,48.715001 107.055,48.505 C107.425002,48.294999 107.61,47.9800021 107.61,47.56 C107.61,47.0999977 107.375002,46.7400013 106.905,46.48 C106.434998,46.2199987 105.680005,45.9400015 104.64,45.64 C103.539994,45.3199984 102.625004,45.0000016 101.895,44.68 C101.164996,44.3599984 100.540003,43.8750033 100.02,43.225 C99.4999974,42.5749967 99.24,41.7300052 99.24,40.69 C99.24,39.089992 99.839994,37.8500044 101.04,36.97 C102.240006,36.0899956 103.759991,35.65 105.6,35.65 C106.700006,35.65 107.799994,35.8049984 108.9,36.115 C110.000005,36.4250016 110.999995,36.8699971 111.9,37.45 L110.31,40.6 Z M125.88,41.35 C124.959995,40.2099943 123.760007,39.64 122.28,39.64 C121.119994,39.64 120.175004,40.0349961 119.445,40.825 C118.714996,41.615004 118.35,42.6599935 118.35,43.96 C118.35,45.2600065 118.709996,46.3149959 119.43,47.125 C120.150004,47.9350041 121.069994,48.34 122.19,48.34 C123.870008,48.34 125.119996,47.7100063 125.94,46.45 L129.12,48.61 C128.439997,49.7500057 127.485006,50.6299969 126.255,51.25 C125.024994,51.8700031 123.590008,52.18 121.95,52.18 C120.329992,52.18 118.900006,51.8400034 117.66,51.16 C116.419994,50.4799966 115.455003,49.5200062 114.765,48.28 C114.074997,47.0399938 113.73,45.6100081 113.73,43.99 C113.73,42.3499918 114.074997,40.9050062 114.765,39.655 C115.455003,38.4049938 116.424994,37.4350034 117.675,36.745 C118.925006,36.0549965 120.369992,35.71 122.01,35.71 C123.550008,35.71 124.919994,36.0049971 126.12,36.595 C127.320006,37.1850029 128.279996,38.0199946 129,39.1 L125.88,41.35 Z M141.36,52 L141.36,50.11 C140.819997,50.7900034 140.120004,51.3099982 139.26,51.67 C138.399996,52.0300018 137.410006,52.21 136.29,52.21 C134.589991,52.21 133.240005,51.7450046 132.24,50.815 C131.239995,49.8849953 130.74,48.6700075 130.74,47.17 C130.74,45.6499924 131.274995,44.4650042 132.345,43.615 C133.415005,42.7649957 134.92999,42.3300001 136.89,42.31 L141.33,42.31 L141.33,42.01 C141.33,41.1499957 141.045003,40.4850024 140.475,40.015 C139.904997,39.5449976 139.070005,39.31 137.97,39.31 C136.469992,39.31 134.870008,39.7799953 133.17,40.72 L131.73,37.54 C133.010006,36.8999968 134.209994,36.4300015 135.33,36.13 C136.450006,35.8299985 137.679993,35.68 139.02,35.68 C141.180011,35.68 142.854994,36.1899949 144.045,37.21 C145.235006,38.2300051 145.84,39.6499909 145.86,41.47 L145.89,52 L141.36,52 Z M137.58,48.91 C138.540005,48.91 139.369996,48.6800023 140.07,48.22 C140.770003,47.7599977 141.189999,47.1800035 141.33,46.48 L141.33,45.04 L137.7,45.04 C136.799995,45.04 136.135002,45.1849986 135.705,45.475 C135.274998,45.7650014 135.06,46.2299968 135.06,46.87 C135.06,47.4900031 135.284998,47.9849981 135.735,48.355 C136.185002,48.7250018 136.799996,48.91 137.58,48.91 Z M134.1,29.95 L143.19,29.95 L143.19,32.77 L134.1,32.77 L134.1,29.95 Z M159.75,35.71 C161.250007,35.71 162.574994,36.0549965 163.725,36.745 C164.875006,37.4350034 165.764997,38.4099937 166.395,39.67 C167.025003,40.9300063 167.34,42.3799918 167.34,44.02 C167.34,45.6400081 167.030003,47.0649939 166.41,48.295 C165.789997,49.5250061 164.915006,50.4799966 163.785,51.16 C162.654994,51.8400034 161.340007,52.18 159.84,52.18 C158.719994,52.18 157.725004,51.9650022 156.855,51.535 C155.984996,51.1049979 155.250003,50.4800041 154.65,49.66 L154.65,57.82 L150.03,57.82 L150.03,35.86 L154.65,35.86 L154.65,38.23 C155.230003,37.4099959 155.954996,36.7850021 156.825,36.355 C157.695004,35.9249978 158.669995,35.71 159.75,35.71 Z M158.67,48.34 C159.850006,48.34 160.809996,47.9250042 161.55,47.095 C162.290004,46.2649959 162.66,45.1900066 162.66,43.87 C162.66,42.5699935 162.290004,41.5050042 161.55,40.675 C160.809996,39.8449959 159.850006,39.43 158.67,39.43 C157.489994,39.43 156.525004,39.8449959 155.775,40.675 C155.024996,41.5050042 154.65,42.5699935 154.65,43.87 C154.65,45.2100067 155.024996,46.2899959 155.775,47.11 C156.525004,47.9300041 157.489994,48.34 158.67,48.34 Z M170.4,35.86 L175.02,35.86 L175.02,52 L170.4,52 L170.4,35.86 Z M172.68,28.69 C173.420004,28.69 174.024998,28.9299976 174.495,29.41 C174.965002,29.8900024 175.2,30.5099962 175.2,31.27 C175.2,32.0300038 174.965002,32.6499976 174.495,33.13 C174.024998,33.6100024 173.420004,33.85 172.68,33.85 C171.959996,33.85 171.365002,33.6050025 170.895,33.115 C170.424998,32.6249976 170.19,32.0100037 170.19,31.27 C170.19,30.5099962 170.424998,29.8900024 170.895,29.41 C171.365002,28.9299976 171.959996,28.69 172.68,28.69 Z M189.66,35.68 C191.460009,35.68 192.894995,36.2399944 193.965,37.36 C195.035005,38.4800056 195.57,39.9799906 195.57,41.86 L195.57,52 L190.95,52 L190.95,43.21 C190.95,42.1899949 190.665003,41.385003 190.095,40.795 C189.524997,40.2049971 188.750005,39.91 187.77,39.91 C186.629994,39.9300001 185.730003,40.3249962 185.07,41.095 C184.409997,41.8650039 184.08,42.849994 184.08,44.05 L184.08,52 L179.46,52 L179.46,35.86 L184.08,35.86 L184.08,38.68 C185.200006,36.7199902 187.059987,35.7200002 189.66,35.68 Z M214.68,35.86 L214.68,50.5 C214.68,52.0200076 214.320004,53.3449944 213.6,54.475 C212.879996,55.6050057 211.870006,56.474997 210.57,57.085 C209.269993,57.695003 207.770008,58 206.07,58 C204.749993,58 203.495006,57.8100019 202.305,57.43 C201.114994,57.0499981 200.030005,56.5300033 199.05,55.87 L200.76,52.63 C202.280008,53.7100054 203.949991,54.25 205.77,54.25 C207.090007,54.25 208.139996,53.9250033 208.92,53.275 C209.700004,52.6249968 210.09,51.7500055 210.09,50.65 L210.09,48.82 C209.549997,49.5800038 208.870004,50.159998 208.05,50.56 C207.229996,50.960002 206.290005,51.16 205.23,51.16 C203.849993,51.16 202.625005,50.8350032 201.555,50.185 C200.484995,49.5349968 199.655003,48.6200059 199.065,47.44 C198.474997,46.2599941 198.18,44.9000077 198.18,43.36 C198.18,41.8399924 198.474997,40.5050057 199.065,39.355 C199.655003,38.2049942 200.484995,37.3100032 201.555,36.67 C202.625005,36.0299968 203.849993,35.71 205.23,35.71 C206.270005,35.71 207.199996,35.914998 208.02,36.325 C208.840004,36.7350021 209.529997,37.3099963 210.09,38.05 L210.09,35.86 L214.68,35.86 Z M206.31,47.65 C207.430006,47.65 208.339996,47.2650038 209.04,46.495 C209.740003,45.7249961 210.09,44.7200062 210.09,43.48 C210.09,42.2399938 209.740003,41.2300039 209.04,40.45 C208.339996,39.6699961 207.430006,39.28 206.31,39.28 C205.189994,39.28 204.280003,39.6699961 203.58,40.45 C202.879996,41.2300039 202.52,42.2399938 202.5,43.48 C202.52,44.7200062 202.874997,45.7249961 203.565,46.495 C204.255003,47.2650038 205.169994,47.65 206.31,47.65 Z" id="landscÄping"></path>
            <g id="icon">
                <path d="M10.563125,50.956875 C7.4918125,50.956875 5.0040625,49.9949375 3.173125,48.098 C-0.052,44.760625 0.079875,39.7555 0.0871875,39.5455 C0.38015625,13.65175 8.7834375,1.549875 9.1396875,1.04675 C9.4595125,0.59753125 9.96975,0.3265625 10.5215,0.3143125 C11.0561688,0.2850125 11.59575,0.5486875 11.9350625,0.9808125 C12.3305688,1.48618125 21.6175625,13.6076875 21.9131875,39.5845625 C21.6910188,43.5958125 19.03475,50.9564375 10.5631875,50.9564375 L10.563125,50.956875 Z M10.6436938,5.42 C8.32194375,9.965875 3.78556875,21.171875 3.57806875,39.624375 C3.575625,39.6927312 3.5023875,43.4280625 5.69719375,45.6839375 C6.86175625,46.88025 8.45356875,47.46375 10.5629437,47.46375 C17.8873187,47.46375 18.4073188,39.829375 18.4241938,39.5075 C18.2117938,21.02625 13.1922563,9.895625 10.6435688,5.420625 L10.6436938,5.42 Z" id="Fill-1"></path>
                <path d="M11,57.6875 C10.035625,57.6875 9.254375,56.90625 9.254375,55.941875 L9.254375,18.395625 C9.254375,17.43125 10.035625,16.65 11,16.65 C11.964375,16.65 12.745625,17.43125 12.745625,18.395625 L12.745625,55.941875 C12.745625,56.90625 11.964375,57.6875 11,57.6875 Z" id="Fill-2"></path>
                <path d="M11,29.748125 C10.5874,29.748125 10.1748125,29.6040813 9.84275,29.3111125 L6.0585625,25.9663625 C5.3359375,25.3267375 5.2675625,24.223175 5.90719375,23.5029875 C6.54681875,22.7803625 7.65525625,22.714425 8.37056875,23.3516187 L12.1523188,26.6988062 C12.8749438,27.3384312 12.9433188,28.4419938 12.3036875,29.1621812 C11.9643313,29.547925 11.483375,29.7481187 11,29.7481187 L11,29.748125 Z" id="Fill-4"></path>
            </g>
        </g>
    </g>
</svg>