<svg width="64" height="64" xmlns="http://www.w3.org/2000/svg">

 <g>
  <title>background</title>
  <rect fill="none" id="canvas_background" height="402" width="582" y="-1" x="-1"/>
 </g>
 <g>
  <title>Layer 1</title>
  <path fill="#027d2a" id="svg_3" d="m41.9,20.1c-0.7,-2.1 -2.6,-3.6 -4.9,-3.6c-1.6,0 -3,0.7 -4,1.9c-1.1,-0.8 -2.4,-1.3 -3.8,-1.3c-2.6,0 -4.8,1.5 -5.8,3.8c-2.5,0.2 -4.6,2 -5.3,4.3l26.4,-3c-0.5,-1 -1.5,-1.9 -2.6,-2.1z" class="st0"/>
  <path fill="#027d2a" id="svg_4" d="m50.6,18.5l-5.5,5c-0.1,0 -0.2,0 -0.3,0l-27.2,3c-0.8,0.1 -1.4,0.7 -1.6,1.5c-0.2,0.8 0.1,1.7 0.8,2.1l5.3,3.5l-0.8,0.7c-1.3,-1.1 -3,-1.9 -4.9,-1.9c-4,0.1 -7.4,3.5 -7.4,7.6s3.4,7.5 7.5,7.5s7.5,-3.4 7.5,-7.5c0,-1.5 -0.5,-3 -1.3,-4.1l1.2,-1l5.2,3.4c0.3,0.2 0.7,0.3 1.1,0.3c0.1,0 0.2,0 0.3,0l4.7,-0.7l4.9,7c0.5,0.8 1.3,1.3 2.3,1.3l0.4,0c1.4,0 2.6,-1.2 2.6,-2.6l-1.3,-7.2c0.4,-0.3 0.7,-0.7 0.8,-1.2l1.7,-9.2c0.1,-0.3 0,-0.7 -0.1,-1l4.7,-4.4l3.8,0l0,-2l-4.4,0l0,-0.1zm-34,26.3c-2.6,0 -4.8,-2.1 -4.8,-4.8s2.1,-4.8 4.8,-4.8s4.8,2.1 4.8,4.8s-2.2,4.8 -4.8,4.8zm26.2,-0.7l-0.4,0c-0.2,0 -0.4,-0.1 -0.5,-0.3l-4.4,-6.3l4.8,-0.7l1.2,6.8c-0.1,0.3 -0.3,0.5 -0.7,0.5z" class="st0"/>
  <circle fill="#027d2a" id="svg_5" r="1.5" cy="39.7" cx="16.6" class="st0"/>
 </g>
</svg>