<svg width="64" height="64" xmlns="http://www.w3.org/2000/svg">

 <g>
  <title>background</title>
  <rect fill="none" id="canvas_background" height="402" width="582" y="-1" x="-1"/>
 </g>
 <g>
  <title>Layer 1</title>
  <path fill="#027d2a" id="svg_3" d="m23,55.6c0.1,0.5 0.5,0.9 1,0.9l16.5,0c0.5,0 0.9,-0.4 1,-0.9l0.2,-1.6l-18.8,0l0.1,1.6z" class="st0"/>
  <path fill="#027d2a" id="svg_4" d="m42.3,37.5l-9,0l0,-6.4c0.6,0.2 1.4,0.3 2.3,0.3c0.9,0 2,-0.1 3,-0.6c2.1,-0.9 3.7,-2.7 4.6,-5.4c0.2,-0.5 -0.1,-1.1 -0.6,-1.3c-2.6,-1 -5,-1 -7,0.1c-1,0.5 -1.7,1.1 -2.4,1.8l0,-4.9c0.3,0.2 0.7,0.3 1.1,0.3c0.6,0 1.3,-0.2 2.1,-0.7c1.3,-0.8 1.9,-1.7 1.8,-2.8c-0.1,-0.6 -0.4,-1.1 -0.8,-1.5c0.4,0 0.8,-0.2 1.1,-0.4c0.8,-0.6 1.1,-1.7 0.8,-3.2c-0.3,-1.5 -0.9,-2.4 -1.9,-2.7c-0.7,-0.2 -1.4,0 -2.1,0.4c0.1,-0.6 0.1,-1.2 -0.1,-1.7c-0.4,-0.9 -1.4,-1.4 -3,-1.4s-2.5,0.5 -3,1.4c-0.2,0.5 -0.3,1.1 -0.1,1.6c-0.3,-0.2 -0.6,-0.3 -1,-0.4c-1,-0.1 -1.9,0.5 -2.7,1.9c-0.8,1.3 -0.9,2.4 -0.3,3.3c0.5,0.7 1.3,1 2.1,1.1c-0.5,0.5 -0.9,1 -0.9,1.7c-0.1,1 0.6,1.9 1.9,2.7c0.8,0.4 1.4,0.6 2,0.6c0.4,0 0.7,-0.1 1.1,-0.3l0,10c-0.7,-0.9 -1.7,-1.8 -3,-2.4c-2,-0.9 -4.4,-0.9 -7,0.2c-0.5,0.2 -0.8,0.8 -0.5,1.3c1.1,2.6 2.7,4.4 4.8,5.2c0.9,0.3 1.8,0.5 2.7,0.5c1.2,0 2.3,-0.3 3,-0.5l0,2l-9,0c-0.3,0 -0.6,0.1 -0.7,0.3s-0.3,0.5 -0.3,0.8l1.4,13.6l19.2,0l1.4,-13.4c0,-0.3 -0.1,-0.6 -0.3,-0.8s-0.4,-0.3 -0.7,-0.3zm-12.4,-22.7c0,-1.4 1.1,-2.5 2.5,-2.5c1.4,0 2.5,1.1 2.5,2.5c0,1.4 -1.1,2.5 -2.5,2.5c-1.4,0 -2.5,-1.1 -2.5,-2.5z" class="st0"/>
 </g>
</svg>