<?xml version="1.0"?>
<svg xmlns="http://www.w3.org/2000/svg" height="512px" viewBox="0 0 60 60" width="512px"><g><g id="Page-1" fill="none" fill-rule="evenodd"><g id="011---Painting-Fence" fill="rgb(0,0,0)" fill-rule="nonzero"><path id="Shape" d="m59.11 46c-1.9094556-.1276909-3.8076626.3784976-5.4 1.44.7517309-2.0890432 1.7881755-4.0643449 3.08-5.87.2177685-.3129231.2386648-.7224435.053879-1.0559075s-.5431005-.5328482-.923879-.5140925c-2.6461262.3458833-5.0910859 1.5966286-6.92 3.54v-14.54c0-.5522847-.4477153-1-1-1s-1 .4477153-1 1v17.13c-1.86 3-2.85 7-3 11.87h-3v-31c0-.5522847-.4477153-1-1-1s-1 .4477153-1 1v3h-4v-3c0-.5522847-.4477153-1-1-1s-1 .4477153-1 1v31h-6v-5-6-10-6-7.58l.71-.71c.3921221-.3921222.3921221-1.0278778 0-1.42-.3921222-.3921221-1.0278778-.3921221-1.42 0l-.71.71c-.3719209.3749829-.5804215.881855-.58 1.41v6.59h-4v-6.59c.0004215-.528145-.2080791-1.0350171-.58-1.41l-3-3c-.3755332-.3786253-.8867249-.5915966-1.42-.5915966s-1.0444668.2129713-1.42.5915966l-3 3c-.3719209.3749829-.5804215.881855-.58 1.41v20.13c-1.82891407-1.9433714-4.27387381-3.1941167-6.92-3.54-.38204684-.0219482-.74311831.1760588-.93.51-.18893697.3381815-.16556053.7550613.06 1.07 1.29182454 1.8056551 2.32826907 3.7809568 3.08 5.87-1.59358983-1.0595485-3.49000925-1.5687722-5.4-1.45-.35023161.0388764-.65415034.2592175-.8.58-.14875039.3270906-.11057525.708842.1 1 4.58 6.41 3 10.87 2.88 11.05-.1226369.3074452-.08519498.655655.1.93.18627044.2755788.49737392.4405011.83.44h52c.3290825-.0028029.6357191-.1673396.82-.44.1850966-.2701554.2261872-.6138215.11-.92-.07-.19-1.7-4.65 2.88-11.06.2105753-.291158.2487504-.6729094.1-1-.1458497-.3207825-.4497684-.5411236-.8-.58zm-24.11-8h4v8h-4zm0 10h4v4h-4zm4-16v4h-4v-4zm-18 6h4v8h-4zm0 10h4v4h-4zm4-16v4h-4v-4zm-19.73 26c.29-1.84.3-5.39-2.33-9.85 1.11494108.2491669 2.14765048.7792911 3 1.54 1.87 1.68 2.89 4.47 3.06 8.31zm3.91-7.37c-.49400359-2.817982-1.48256533-5.5263703-2.92-8 2.0289146.9026225 3.73713323 2.3981853 4.9 4.29 1.76 2.77 2.7 6.5 2.84 11.08h-3c-.0143767-2.5661416-.638169-5.0921578-1.82-7.37zm6.82 7.37c-.13-4.83-1.12-8.82-3-11.87v-22.71l3-3 3 3v34.58zm5-4h4v4h-4zm14 4v-4h4v4zm11 0c.12-4.58 1.06-8.31 2.82-11.07 1.159458-1.8946911 2.8686847-3.3911365 4.9-4.29-1.4389688 2.4729105-2.4276331 5.1815798-2.92 8-1.1733556 2.2765555-1.7902267 4.7988727-1.8 7.36zm8.71 0h-3.71c.15-3.82 1.16-6.61 3-8.29.8532755-.761407 1.8852822-1.2946105 3-1.55-2.57 4.45-2.56 8-2.27 9.84z" data-original="#000000" class="active-path" data-old_color="#000000" fill="#2A7D2E"/><path id="Shape" d="m13 11h-2c-.5522847 0-1 .4477153-1 1s.4477153 1 1 1h2c.5522847 0 1-.4477153 1-1s-.4477153-1-1-1z" data-original="#000000" class="active-path" data-old_color="#000000" fill="#2A7D2E"/><path id="Shape" d="m52 8.22v-2.22c.0049086-.06657631.0049086-.13342369 0-.2 0-.23-1.27-5.8-11-5.8h-8.06c-.0918651.01041629-.1823694.03052836-.27.06-.0298502-.00423982-.0601498-.00423982-.09 0-.1045997.0503079-.2021072.11419213-.29.19l-6.1 6.15c-1.4158363 1.44307443-3.5221638 1.9686901-5.45 1.36h-.1l-9.46-1.76h-.18c-3.3137085 0-6 2.6862915-6 6s2.6862915 6 6 6h.18l9.46-1.72h.1c1.9278362-.6086901 4.0341637-.0830744 5.45 1.36l6.1 6.11c.0938689.0926027.2063566.1641858.33.21.1229182.037634.2519397.0512152.38.04h8c4.31 0 6.56 1.21 7.68 2.22.3570255.3286396.8247468.5107295 1.31.51.2786039-.0023729.5539506-.0601617.81-.17.7311775-.3191063 1.202778-1.0422271 1.2-1.84v-10.31c-.0022328-.5295768-.2144122-1.0366497-.59-1.41l-2.41-2.46 1.53-.38c.8723937-.23973992 1.4751996-1.03527963 1.47-1.94zm-29.68 5.78c-.7038996.0029368-1.4039594.103907-2.08.3l-9.33 1.7c-2.209139 0-4-1.790861-4-4s1.790861-4 4-4l9.33 1.7c2.6141359.7761849 5.4432802.04967909 7.36-1.89l4.4-4.4v17.18l-4.4-4.4c-1.3962695-1.4067835-3.2979361-2.1955429-5.28-2.19zm11.68-12h6v20h-6zm16 6.22-1.53.38c-.7080193.16483121-1.2708478.70085834-1.47 1.4-.2137039.7096662-.0174407 1.4793257.51 2l2.49 2.41v10.33c-1.84-1.66-4.54-2.56-8-2.71v-20.03c6.59.3 7.84 3.55 8 4.09z" data-original="#000000" class="active-path" data-old_color="#000000" fill="#2A7D2E"/></g></g></g> </svg>
