<?xml version="1.0"?>
<svg xmlns="http://www.w3.org/2000/svg" height="512px" viewBox="0 0 60 60" width="512px" class=""><g><g id="Page-1" fill="none" fill-rule="evenodd"><g id="008---Sprinkler" fill="rgb(0,0,0)" fill-rule="nonzero"><path id="Shape" d="m58 53h-.19c-.49-2.49-1.81-10.35.19-14.21.2996603-.5918446.177947-1.3099533-.3-1.77-.4559811-.4606173-1.1622704-.5626823-1.73-.25-1.1128201.6029612-2.1249481 1.3755522-3 2.29-.0502956-3.466513.4630615-6.9181637 1.52-10.22.2906141-.6739201.050922-1.4591602-.5665084-1.8559026s-1.4312676-.288469-1.9234916.2559026c-3.9898514 3.2620602-6.7021135 7.826167-7.66 12.89-1.0487024-.6270596-2.2237345-1.0130439-3.44-1.13-.5202274-.0474273-1.0265446.1847934-1.33.61-.3074627.4274764-.3717799.9836316-.17 1.47 1.86 4.5.45 10-.12 11.91h-1.34c-.2496317-1.8912994-1.1139874-3.6481199-2.46-5-.3837691-.392802-.9524921-.5426682-1.48-.39-.539047.1879984-.9259824.663929-1 1.23-.2600393 1.4738603-.7888285 2.8873546-1.56 4.17h-3.44v-8c1.6568542 0 3-1.3431458 3-3v-6l15-8.57c1.9164281-1.1045695 2.5745695-3.5535719 1.47-5.47s-3.5535719-2.5745695-5.47-1.47l-6.06 3.51h-2.44l-2.43-7.26c-.5422025-1.6336576-2.0687176-2.7372596-3.79-2.74h-8.56c-1.7186307.0013034-3.2443351 1.1002936-3.79 2.73l-2.43 7.27h-2.5v-2c0-1.6568542-1.34314575-3-3-3h-4c-1.65685425 0-3 1.3431458-3 3v7c0 1.6568542 1.34314575 3 3 3h7v5c0 1.6568542 1.3431458 3 3 3h2v2c0 1.6568542 1.3431458 3 3 3v8h-3v-5c0-.5522847-.4477153-1-1-1s-1 .4477153-1 1v5h-3v-2c0-.5522847-.44771525-1-1-1s-1 .4477153-1 1v2h-2v-4c0-.5522847-.44771525-1-1-1s-1 .4477153-1 1v4h-2c-1.1045695 0-2 .8954305-2 2v3c0 1.1045695.8954305 2 2 2h56c1.1045695 0 2-.8954305 2-2v-3c0-1.1045695-.8954305-2-2-2zm-2.41-13.66c-1.34 4.41-.33 11 .18 13.66h-5.77c.15-5.11 1.39-8.52 2.89-10.78.7261503-1.1093319 1.6397741-2.083864 2.7-2.88zm-3.59-9.44c-1.0370115 3.7224066-1.3593628 7.6075885-.95 11.45-.9638508 1.5276773-1.688867 3.1935286-2.15 4.94-.5367004-1.7821866-1.4856598-3.4128894-2.77-4.76.5788412-4.4308869 2.6491112-8.5326315 5.87-11.63zm-10.45 11.22c2.33.5 6.16 2.75 6.42 11.88h-6.6c.63-2.35 1.71-7.36.18-11.88zm-6.82 9c.6253793.8487124 1.0338939 1.8373865 1.19 2.88h-2.23c.4505055-.9088268.7992854-1.8646179 1.04-2.85zm8.27-27.86c.3048058-.1727609.6496472-.2624197 1-.26.7173695-.002848 1.3813181.3787316 1.74 1 .26709.4610475.3391674 1.0096126.2002433 1.5240073s-.4773639.9520903-.9402433 1.2159927l-21 12c-.4610475.26709-1.0096126.3391674-1.5240073.2002433s-.9520903-.4773639-1.2159927-.9402433c-.26709-.4610475-.3391674-1.0096126-.2002433-1.5240073s.4773639-.9520903.9402433-1.2159927zm-26.18-4.9c.2751442-.8146234 1.0401682-1.3622195 1.9-1.36h8.56c.858799.0035163 1.6194833.5549118 1.89 1.37l2.22 6.63h-2.11l-1.77-5.32c-.1429939-.4253709-.5518476-.7033915-1-.68h-7.07c-.4481524-.0233915-.8570061.2546291-1 .68l-1.72 5.32h-2.11zm10.35 6.64h-8.34l1.33-4h5.68zm-25.17 5v-7c0-.5522847.44771525-1 1-1h4c.55228475 0 1 .4477153 1 1v3c0 .5522847.44771525 1 1 1h23.44l-7 4h-22.44c-.55228475 0-1-.4477153-1-1zm11 9c-.5522847 0-1-.4477153-1-1v-5h3v6zm4 4v-10h4.94l-.92.53c-1.5708893.9007585-2.340708 2.7444894-1.8767537 4.4948624s2.0459418 2.9707336 3.8567537 2.9751376c.7021011.0056346 1.3928289-.1774082 2-.53l4-2.29v4.82c0 .5522847-.4477153 1-1 1h-10c-.5522847 0-1-.4477153-1-1zm3 3h6v8h-6zm-18 13v-3h56v3z" data-original="#000000" class="active-path" data-old_color="#000000" fill="#2A7D2E"/><path id="Shape" d="m40.59 7.66c.2430724-.00034978.4776958-.08922227.66-.25.4716977-.41661413.9657647-.80719408 1.48-1.17.4057217-.33230494.4858005-.92159274.1834683-1.35011569-.3023321-.42852295-.8843538-.55068464-1.3334683-.27988431-.5769692.4022735-1.1311556.83627491-1.66 1.3-.3131247.27611889-.4217677.71770384-.2724988 1.10758526.1492689.38988143.5250352.64600679.9424988.64241474z" data-original="#000000" class="active-path" data-old_color="#000000" fill="#2A7D2E"/><path id="Shape" d="m45.63 4.46c.1374138.00110023.2735797-.02613295.4-.08.57-.26 1.17-.49 1.78-.71.3661635-.09385232.6481142-.38614951.7287153-.75545617.0806011-.36930667-.0539241-.75249963-.3476868-.9903807-.2937628-.23788106-.6965521-.28979076-1.0410285-.13416313-.66.23-1.31.48-1.93.76-.2427867.10728155-.4329607.30668669-.5286226.55428217-.0956619.24759547-.0889623.52306541.0186226.76571783.162566.36167719.5234798.59313279.92.59z" data-original="#000000" class="active-path" data-old_color="#000000" fill="#2A7D2E"/><path id="Shape" d="m34.94 18h.06c.5296773.0009542.9682202-.4112761 1-.94.0609061-.6013925.1712798-1.1967415.33-1.78.1397247-.5328045-.1777232-1.0782783-.71-1.22-.5328045-.1397247-1.0782783.1777232-1.22.71-.1996947.7095136-.333594 1.4359171-.4 2.17-.0163994.265334.0735261.5262777.2499078.7251761.1763816.1988985.4247009.3193798.6900922.3348239z" data-original="#000000" class="active-path" data-old_color="#000000" fill="#2A7D2E"/><path id="Shape" d="m59 0c-.6 0-1.18 0-1.75 0-.5522847 0-1 .44771525-1 1s.4477153 1 1 1h1.75c.5522847 0 1-.44771525 1-1s-.4477153-1-1-1z" data-original="#000000" class="active-path" data-old_color="#000000" fill="#2A7D2E"/><path id="Shape" d="m36.37 12.19c.1465009.0830601.311606.1277761.48.13.3685937-.0009835.7067616-.2046528.88-.53.304843-.547393.63865-1.078146 1-1.59.316067-.45044848.2088148-1.07161743-.24-1.39-.4374907-.32681967-1.0562655-.24223893-1.39.19-.4038185.59034519-.7711703 1.2048246-1.1 1.84-.2646773.4756974-.1002265 1.0757206.37 1.35z" data-original="#000000" class="active-path" data-old_color="#000000" fill="#2A7D2E"/><path id="Shape" d="m51.34 2.69c.0629915.00930638.1270085.00930638.19 0 .61-.12 1.25-.22 1.91-.31.5522847-.07455844.9395584-.58271525.865-1.135s-.5827153-.93955844-1.135-.865c-.7.09-1.38.2-2 .33-.5522847.05522848-.9552285.54771525-.9 1.1s.5477153.95522847 1.1.9z" data-original="#000000" class="active-path" data-old_color="#000000" fill="#2A7D2E"/><path id="Shape" d="m40.76 14.66c-.3804059.6937813-.6375528 1.4483045-.76 2.23-.0588081.5426551.3283925 1.032219.87 1.1h.13c.5086257.0036739.9389766-.3750349 1-.88.1024374-.5450775.2879304-1.0712031.55-1.56.2469243-.4916536.050313-1.0904244-.44-1.34-.2384026-.1210697-.5153611-.1416226-.7690229-.0570687s-.4628969.2671714-.5809771.5070687z" data-original="#000000" class="active-path" data-old_color="#000000" fill="#2A7D2E"/><path id="Shape" d="m55.31 9.16h.09c.6-.06 1.26-.1 1.94-.16.5522847 0 1-.44771525 1-1s-.4477153-1-1-1c-.71 0-1.39.07-2 .13-.5491457.04767262-.9561623.53072527-.91 1.08.0210105.48948063.3935547.89165896.88.95z" data-original="#000000" class="active-path" data-old_color="#000000" fill="#2A7D2E"/><path id="Shape" d="m44.16 13c.2302147-.001861.4527364-.0830991.63-.23.4735183-.3940069.9785434-.7485278 1.51-1.06.2291251-.1369809.3939699-.3598867.4578305-.6190853.0638605-.2591985.0214348-.5331709-.1178305-.7609147-.2884294-.46773299-.900231-.61510124-1.37-.33-.6150019.3715758-1.2031185.7859307-1.76 1.24-.2030364.1709706-.32977.4156482-.3522787.6801252s.0610545.5270523.2322787.7298748c.1922652.224813.4741994.3529649.77.35z" data-original="#000000" class="active-path" data-old_color="#000000" fill="#2A7D2E"/><path id="Shape" d="m48.48 9.57c.1357475.4333092.5463999.7207659 1 .7.0990821.0191616.2009179.0191616.3 0 .59-.18 1.21-.35 1.85-.49.3581031-.06912824.6501719-.32773288.7621549-.67482993.1119829-.34709705.0261184-.72763329-.224064-.99301098s-.6250011-.37350516-.9780909-.28215909c-.675394.14596174-1.3429237.32619475-2 .54-.5224856.14185265-.8371938.6737537-.71 1.2z" data-original="#000000" class="active-path" data-old_color="#000000" fill="#2A7D2E"/></g></g></g> </svg>
