<?xml version="1.0"?>
<svg xmlns="http://www.w3.org/2000/svg" height="512px" viewBox="0 0 60 60" width="512px"><g><g id="Page-1" fill="none" fill-rule="evenodd"><g id="001---Wheel-Barrow" fill="rgb(0,0,0)" fill-rule="nonzero" transform="translate(0 -1)"><path id="Shape" d="m57 25h-5c-1.3139499.0092427-2.4689776.872474-2.85 2.13-.8238299.309223-1.4634938.9746205-1.74 1.81l-1.65 3.3c-.401566-.1571555-.8287797-.2385295-1.26-.24h-2.5c0-2.7614237-2.2385763-5-5-5-.4218733-.0016004-.8421309.0521926-1.25.16-.5216785-1.896778-1.8174101-3.4864991-3.57-4.38l.12-.34 1.54-5.37c.1515771-.5105608.0932557-1.0604919-.1620372-1.5279034-.255293-.4674114-.6864702-.8136943-1.1979628-.9620966l-2.83-.81 2.91-9.71 1.93.56c.0927618.01460743.1872382.01460743.28 0 .4620038.017082.8754894-.28476248 1-.73.056319-.25996572.0067445-.53165738-.1377583-.7549799-.1445028-.22332251-.3720252-.3798715-.6322417-.4350201l-2.83-.83-2.89-.87c-.5522847-.15463973-1.1253603.16771525-1.28.72s.1677153 1.12536027.72 1.28l1.91.55-2.9 9.7-2.95-.84c-1.0601983-.3021115-2.1649476.3106442-2.47 1.37l-1.54 5.39c-.0810953.2886203-.1412516.5827178-.18.88h-.09c-3.9384347-.0155052-7.2160824 3.0217817-7.5 6.95-2.7614237 0-5 2.2385763-5 5h-1.5c-1.93299662 0-3.5 1.5670034-3.5 3.5s1.56700338 3.5 3.5 3.5h.06l3.8 4.11c-.45038698-.0668325-.90472667-.1035805-1.36-.11-3.81095586.0071285-7.20429799 2.4137352-8.47125286 6.0079334s-.13283577 7.5967349 2.83125286 9.9920666h-2.36c-.55228475 0-1 .4477153-1 1s.44771525 1 1 1h52c.5522847 0 1-.4477153 1-1s-.4477153-1-1-1h-12.18c.1164225-.320674.1772954-.6588568.18-1v-11.76l3.62-7.24c1.2809554-.035692 2.4386508-.7724788 3.0134052-1.9178076s.4735589-2.5138583-.2634052-3.5621924l1.84-3.7.18-.36c.5277318.9473179 1.5256122 1.5361056 2.61 1.54h5c1.6568542 0 3-1.3431458 3-3s-1.3431458-3-3-3zm-34.31-5.32 1.54-5.39 2.92.84-.86 2.87c-.0732098.2586707-.0391873.5359237.0943929.7692186.1335801.2332949.3554663.4029808.6156071.4707814.0961531.0140911.1938469.0140911.29 0 .4563699.0195036.8679485-.2727171 1-.71l.86-2.89 2.85.82-1.54 5.37-.09.26c-1.3855098-.2753136-2.8224137-.1109962-4.11.47-.9551236-1.1001828-2.2092709-1.8992241-3.61-2.3-.0040743-.1941414.0093129-.388256.04-.58zm-8.91 9.43c.1960869.0522175.386905.1225189.57.21.4943143.2454836 1.0940469.0440809 1.34-.45.1171894-.2386162.1345442-.5140741.0482298-.7655117-.0863144-.2514377-.2691933-.4581586-.5082298-.5744883l-.23-.1c.0306572-2.2344214 1.410193-4.2281818 3.4903996-5.0444654 2.0802067-.8162837 4.4475196-.2928057 5.9896004 1.3244654-.2819639.3615222-.2819639.8684778 0 1.23.1652201.2089813.4069976.3433986.6717023.373436s.5304531-.0467883.7382977-.213436c.1735462-.1402777.3573982-.2673027.55-.38.7691507-.4748159 1.6561059-.7242721 2.56-.72 2.6195842-.0075755 4.8009217 2.0079804 5 4.62.0241908.3489672.2289694.6599273.54.82.3094011.1786328.6905989.1786328 1 0 .4393033-.2729537.9430291-.4247615 1.46-.44 1.6568542 0 3 1.3431458 3 3h-30c.0021202-.9321137.4373866-1.8102874 1.177876-2.3764287.7404893-.5661413 1.7020653-.7559239 2.602124-.5135713zm25.55 16-10.44 2-10.23 2-9.38-10.11h33.1zm-37.33 6.89c.00189496-3.4144164 2.46690245-6.3293038 5.83358365-6.8982506 3.36668125-.5689469 6.65264155 1.374065 7.77641635 4.5982506l-2 .39c-.96929-2.3731948-3.5763824-3.628866-6.03623589-2.9072722-2.45985346.7215938-3.97547514 3.1866561-3.50913907 5.7073916.46633606 2.5207354 2.76353692 4.2804255 5.31873978 4.0742339 2.55520288-.2061916 4.54052168-2.3114589 4.59663518-4.8743533l2-.38v.33c-.209163 3.7149744-3.2881171 6.6171221-7.00895987 6.6064759-3.72084275-.0106462-6.78313922-2.9303654-6.97104013-6.6464759zm7.19 1 2.81-.55c-.2299174 1.4392729-1.4610444 2.5050485-2.91840879 2.5264404-1.45736441.0213918-2.71924208-1.0077903-2.99130397-2.439695-.27206188-1.4319046.52441981-2.852175 1.88807434-3.3667768 1.36365453-.5146017 2.89987492.0253778 3.64163842 1.2800314l-2.81.55c-.35726559.0678805-.65117881.3212035-.7710254.6645448s-.047419.7245392.19 1c.237419.2754609.60375981.4033357.9610254.3354552zm8.81-1c0-.24 0-.48 0-.72l10.59-2 5.67 9.72h-19.62c2.1206915-1.7053563 3.3558893-4.278685 3.36-7zm19.15 7c-.3586848.001424-.690659-.1893658-.87-.5l-5.65-9.67 8.37-1.62v10.79c0 .5522847-.4477153 1-1 1zm7.35-22h-38c-.82842712 0-1.5-.6715729-1.5-1.5s.67157288-1.5 1.5-1.5h38c.8284271 0 1.5.6715729 1.5 1.5s-.6715729 1.5-1.5 1.5zm12.5-8h-5c-.5522847 0-1-.4477153-1-1s.4477153-1 1-1h5c.5522847 0 1 .4477153 1 1s-.4477153 1-1 1z" data-original="#000000" class="active-path" data-old_color="#000000" fill="#2A7D2E"/><path id="Shape" d="m59 59h-2c-.5522847 0-1 .4477153-1 1s.4477153 1 1 1h2c.5522847 0 1-.4477153 1-1s-.4477153-1-1-1z" data-original="#000000" class="active-path" data-old_color="#000000" fill="#2A7D2E"/></g></g></g> </svg>
