<?xml version="1.0"?>
<svg xmlns="http://www.w3.org/2000/svg" height="512px" viewBox="0 0 59 60" width="512px"><g><g id="Page-1" fill="none" fill-rule="evenodd"><g id="004---Weeding" fill="rgb(0,0,0)" fill-rule="nonzero"><path id="Shape" d="m2 49h6c.71022212-.0042869 1.36489541-.3849109 1.72-1 2.09 1.6 6.53 4 14.28 4h.37c-1.7326527 1.3448352-3.2123537 2.9870662-4.37 4.85v.15c-.3572656.6188022-.3572656 1.3811978 0 2 .3604533.6243901 1.0290646 1.0064537 1.75 1h28.57c.7209354.0064537 1.3895467-.3756099 1.75-1 .3572656-.6188022.3572656-1.3811978 0-2l-.07-.15c-1.40292-2.2755125-3.2786282-4.2228386-5.5-5.71.9529424-.7629454 1.5053317-1.9192804 1.5-3.14-.004283-.7034308-.1939951-1.3932927-.55-2h3.55c2.209139 0 4-1.790861 4-4-.004283-.7034308-.1939951-1.3932927-.55-2h.55c2.209139 0 4-1.790861 4-4s-1.790861-4-4-4h-.56c.3635516-.6039929.5570448-1.2950401.56-2 0-2.209139-1.790861-4-4-4h-11.47c.24-1.1.51-2.19.81-3.24 2.75-.27 12.92-1.72 15.59-8.39.7660018-1.7230615.8622677-3.6697714.27-5.46-.41-1.51-.79-2.95.71-6.38.2630054-.60835656.1413619-1.31467337-.31-1.8-.5276477-.61222076-1.3609907-.86533895-2.14-.65-2.2.62-13.34 4.09-16.58 11.64-1.37 3.17-1.13 6.6.65 10.19-.38 1.33-.72 2.7-1 4.09h-1.53c0-2.209139-1.790861-4-4-4h-13c-.27 0-5.9.05-9.48 3.71-.37812136-.4480008-.93376249-.7075437-1.52-.71h-6c-1.1045695 0-2 .8954305-2 2v20c0 1.1045695.8954305 2 2 2zm37.71-36.49c2.92-6.78 13.78-10.08 15.29-10.51-1.62 3.87-1.13 5.75-.69 7.41.4920803 1.3704165.4238072 2.8796118-.19 4.2-2 5.06-9.85 6.6-13.1 7 1.63-5.06 3.98-9.23 7.38-10.69.5081019-.22091392.7409138-.81189803.52-1.31999998-.2209139-.50810195-.811898-.74091389-1.32-.52000002-3.67 1.59-6.27 5.76-8.11 10.92-.7235412-2.1173337-.6452636-4.4265241.22-6.49zm10.54 45.38.07.11h-28.64l.06-.11c2.8498616-4.6543012 7.8099198-7.605648 13.26-7.89v4c0 .5522847.4477153 1 1 1s1-.4477153 1-1v-4c5.4469909.2858668 10.4033658 3.2372477 13.25 7.89zm.75-29.89c1.1045695 0 2 .8954305 2 2s-.8954305 2-2 2h-10c-.5522847 0-1 .4477153-1 1s.4477153 1 1 1h14c1.1045695 0 2 .8954305 2 2s-.8954305 2-2 2h-15c-.5522847 0-1 .4477153-1 1s.4477153 1 1 1h11c1.1045695 0 2 .8954305 2 2s-.8954305 2-2 2h-11c-.5522847 0-1 .4477153-1 1s.4477153 1 1 1h4c1.1045695 0 2 .8954305 2 2 .0185624.9686161-.6597685 1.811263-1.61 2-2.2999767-1.166754-4.8155163-1.8475495-7.39-2 .1745052-6.7099887.8665598-13.3965061 2.07-20zm-32-4h13c1.1045695 0 2 .8954305 2 2s-.8954305 2-2 2h-6c-.5086257-.0036739-.9389766.3750349-1 .88-.88 7-6.76 7.12-7 7.12-.5522847 0-1 .4477153-1 1s.4477153 1 1 1c4.4944583-.1851903 8.2184513-3.5477123 8.86-8h5.14c1.4204442-.0085738 2.7297908-.7698219 3.44-2h1.64c-1.1883259 6.6041534-1.8570415 13.2913099-2 20-2.619269.1313933-5.1815193.8128428-7.52 2h-3.56c-8.95 0-13-3.46-14-4.39v-17.3c2.74-4.23 8.94-4.31 9-4.31zm-17 3h6v20h-6z" data-original="#000000" class="active-path" data-old_color="#000000" fill="#2A7D2E"/></g></g></g> </svg>
