<?xml version="1.0"?>
<svg xmlns="http://www.w3.org/2000/svg" height="512px" viewBox="0 0 60 42" width="512px"><g><g id="Page-1" fill="none" fill-rule="evenodd"><g id="012---Lawn-Mower" fill="rgb(0,0,0)" fill-rule="nonzero" transform="translate(-1 -1)"><path id="Shape" d="m11.38 28c-1.87356489-.0040466-3.56489756 1.1214475-4.28468546 2.8512356-.7197879 1.7297882-.32613691 3.7228717.99724362 5.0491167s3.31560824 1.7242045 5.04694864 1.0081583c1.7313405-.7160461 2.8604888-2.4049413 2.8604932-4.2785106.000006-2.5531782-2.0668277-4.6244856-4.62-4.63zm0 7.25c-1.0655449.0040439-2.02823346-.6352481-2.43787006-1.6189148s-.18526127-2.1172977.56819817-2.8707571c.75345939-.7534594 1.88709039-.9778348 2.87075709-.5681982s1.6229587 1.3723252 1.6189148 2.4378701c-.0054828 1.4447089-1.1752911 2.6145172-2.62 2.62z" data-original="#000000" class="active-path" data-old_color="#000000" fill="#2A7D2E"/><path id="Shape" d="m61 35c-.0155183-2.3057323-1.0251433-4.4926456-2.77-6l.41-2.06c.07-.35 1.6-8.44-.26-11.88s-14.28-5.78-21.54-6.9c-.6688292-.10706014-1.3541109.02010553-1.94.36l-3.45 2-1.31-3.31 3.21-1.2c.5191476-.19329968.7832996-.77085234.59-1.28999998-.1932997-.51914765-.7708523-.78329965-1.29-.59000002l-4.17 1.57-3.8 1.42c-.3879749.19936994-.6019578.62721832-.5287633 1.05723631.0731946.43001798.4166769.76297866.8487633.82276369.1193119.00104054.2378471-.01927978.35-.06l2.92-1.1 1.44 3.63c-1.0900817.756518-1.5537101 2.1392694-1.14 3.4l3 9.13h-1.57c-.3685937-.0009835-.7067616-.2046528-.88-.53-1.5280003-3.0087363-3.69934-5.6443875-6.36-7.72 1.5784489-.6030467 2.4981569-2.2502514 2.1833454-3.9103899-.3148114-1.6601386-1.773704-2.85629015-3.4633454-2.8396101h-5.48v-4.5c.015617-.93375479-.3447223-1.83460307-1-2.5-.6102618-.5977301-1.4170606-.95314809-2.27-1-.9577202-.05210319-1.8911763.31252809-2.56 1-.73165891.69337839-1.15336118 1.6521203-1.17 2.66v8.34c.00356437 1.2682549.8042713 2.3972517 2 2.82v2.45c-2.99788197.0709357-5.89772977 1.0818597-8.29 2.89-.44182777.3313709-.5313708.9581722-.19999996 1.4s.95817216.5313708 1.39999996.2c2.31635016-1.7625387 5.18345625-2.6449979 8.09-2.49.39 0 .78.05 1.18.11 5.4824561.8389194 9.7503921 5.2006114 10.47 10.7.2120715 1.7569993.0519333 3.5389629-.47 5.23-.1726692.5579997-.0927742 1.1635984.2186995 1.6577264s.8233951.8273987 1.4013005.9122736c1.656933.2264533 3.3276774.3367224 5 .33 4.0115004-.0005413 7.9998786-.6073951 11.83-1.8.8220846-.2728301 1.3751126-1.04384 1.37-1.91v-3.5h2.59c-1.2852575 3.1489074-.4250483 6.7666097 2.14 9h-30.26c3.6411575-2.6413445 5.1666221-7.327398 3.7781518-11.6060519-1.3884703-4.2786538-5.3748489-7.1760535-9.8731518-7.1760535-4.49830286 0-8.48468154 2.8973997-9.87315183 7.1760535-1.38847028 4.2786539.13699434 8.9647074 3.77815183 11.6060519h-3.28c-.55228475 0-1 .4477153-1 1s.44771525 1 1 1h58c.5522847 0 1-.4477153 1-1s-.4477153-1-1-1h-1.73c1.7299881-1.5147246 2.7245634-3.7006045 2.73-6zm-58-2.37c-.00404571-3.3903007 2.03510869-6.4490205 5.16617768-7.7492367 3.13106902-1.3002162 6.73709532-.5857294 9.13583252 1.8101453 2.3987371 2.3958746 3.1175291 6.0010453 1.8210524 9.1336646-1.2964767 3.1326192-4.3527595 5.1754244-7.7430626 5.1754268-4.62196599-.0054958-8.36898546-3.7480439-8.38-8.37zm53.62-16.63c.0493208.0938697.0927384.1907244.13.29l-3-.05c-.5522847 0-1 .4477153-1 1s.4477153 1 1 1l3.44.06c.1830257 2.7542778.008236 5.5206622-.52 8.23l-.25 1.27c-1.0666635-.5167169-2.2348137-.7899684-3.42-.8-1.0546451-.0021964-2.0988647.2086884-3.07.62l-2-6.89c-.0945578-.3342247-.3557753-.5954422-.69-.69l-6.53-1.87c-1.056651-2.3869125-1.5132594-4.9961032-1.33-7.6 9.45 1.64 16.36 3.79 17.24 5.43zm-45.62-11.34c.0034486-.4754835.1980627-.92958308.54-1.26.2678734-.25947712.627073-.40315695 1-.4h.08c.3777152.01172279.7361716.1694436 1 .44.2613859.28946194.3979484.67039938.38 1.06v5.5c0 .5522847.4477153 1 1 1h6.48c.8284271 0 1.5.6715729 1.5 1.5s-.6715729 1.5-1.5 1.5h-9.48c-.5522847 0-1-.4477153-1-1zm2.47 13.74h-.47v-2.4h6.71c.22.15.45.3.71.5 2.9155357 2.0080324 5.2865442 4.7089204 6.9 7.86.5127474 1.0081661 1.5489369 1.6422522 2.68 1.64h7.08c.2585142-.0009794.505512.1068514.680542.2971014.1750299.19025.2619395.445362.239458.7028986v3h-12.5c-1.1544795-6.0210414-5.9709422-10.6653445-12.03-11.6zm27.53 17.1c-5.1413354 1.6030738-10.5668708 2.0839037-15.91 1.41.4944434-1.5874657.7076507-3.2491292.63-4.91h15.28zm-1-5.5v-3c.0204186-.7896583-.2788707-1.5541081-.83-2.12-.5490596-.5710389-1.3078226-.8926099-2.1-.89h-3.35l-3.25-9.76c-.1542001-.4532449.0344788-.9521959.45-1.19l5-2.84c.1939712-.1102812.4192533-.1525216.64-.12l.9.15c-.2645867 3.1420475.3045706 6.2982832 1.65 9.15.1191.2786792.3581544.4883115.65.57l6.46 1.85 2 6.85c-.5388244.3900902-1.0289825.8433186-1.46 1.35zm7 5c0-3.3137085 2.6862915-6 6-6s6 2.6862915 6 6-2.6862915 6-6 6-6-2.6862915-6-6z" data-original="#000000" class="active-path" data-old_color="#000000" fill="#2A7D2E"/><path id="Shape" d="m53 31c-2.209139 0-4 1.790861-4 4s1.790861 4 4 4 4-1.790861 4-4-1.790861-4-4-4zm0 6c-1.1045695 0-2-.8954305-2-2s.8954305-2 2-2 2 .8954305 2 2-.8954305 2-2 2z" data-original="#000000" class="active-path" data-old_color="#000000" fill="#2A7D2E"/></g></g></g> </svg>
