<svg width="64" height="64" xmlns="http://www.w3.org/2000/svg">

 <g>
  <title>background</title>
  <rect fill="none" id="canvas_background" height="402" width="582" y="-1" x="-1"/>
 </g>
 <g>
  <title>Layer 1</title>
  <path fill="#027d2a" id="svg_3" d="m55.4,25.8c-1.8,-1.1 -4.1,-0.8 -5.6,-0.4l0,-1.1c0,-0.6 -0.4,-1 -1,-1l-5.5,0l0,7.7c0,0.6 -0.5,1 -1,1l-6,0c-0.6,0 -1,-0.5 -1,-1l0,-7.6l-5.5,0c-0.6,0 -1,0.4 -1,1l0,10.1l-12.6,-8.4c0.2,-0.6 0.3,-1.3 0.3,-2c-0.1,-1.6 -0.8,-3.1 -1.9,-4.2c-0.4,-0.4 -1,-0.3 -1.4,0.1l-6.8,7.4c-0.4,0.4 -0.3,1 0.1,1.4c1.1,1 2.5,1.6 4.1,1.6c0.1,0 0.2,0 0.3,0c0.5,0 1,-0.1 1.4,-0.2l16.6,14.7l0,4.5c0,0.6 0.4,1 1,1l19,0c0.6,0 1,-0.4 1,-1l0,-7.2c0.1,0 0.3,-0.1 0.4,-0.2c0.3,-0.2 7.6,-5.4 7.6,-10.4c-0.1,-2.8 -0.9,-4.8 -2.5,-5.8zm-5.6,14l0,-12.3c1.2,-0.4 3.2,-0.9 4.5,0c1,0.6 1.5,2 1.5,4.1c0,2.9 -3.8,6.5 -6,8.2z" class="st0"/>
  <path fill="#027d2a" id="svg_4" d="m37,31.4l4.6,0c0.6,0 1,-0.5 1,-1l0,-16.4c0,-0.6 -0.5,-1 -1,-1l-4.6,0c-0.6,0 -1,0.5 -1,1l0,16.3c0,0.6 0.5,1.1 1,1.1z" class="st0"/>
 </g>
</svg>